<?xml version="1.0" standalone="no"?>
<!DOCTYPE svg PUBLIC "-//W3C//DTD SVG 20010904//EN"
 "http://www.w3.org/TR/2001/REC-SVG-20010904/DTD/svg10.dtd">
<svg version="1.0" xmlns="http://www.w3.org/2000/svg"
 width="2500.000000pt" height="2500.000000pt" viewBox="0 0 2500.000000 2500.000000"
 preserveAspectRatio="xMidYMid meet">
<metadata>
Created by potrace 1.14, written by Peter Selinger 2001-2017
</metadata>
<g transform="translate(0.000000,2500.000000) scale(0.100000,-0.100000)"
fill="#000000" stroke="none">
<path d="M90 18965 c0 -355 3 -645 8 -646 4 -1 5597 -2 12429 -3 l12422 -1 0
648 -1 647 -12429 0 -12429 0 0 -645z"/>
<path d="M17394 17313 l1 -583 -1665 0 -1665 0 0 -4138 0 -4137 1023 0 c562 0
1022 2 1023 5 5 27 3 82 -3 86 -4 3 -5 11 -1 19 10 27 8 255 -2 259 -7 3 -7 5
0 5 11 1 13 346 2 357 -3 3 -3 12 0 20 10 26 8 254 -2 258 -7 3 -7 5 0 5 11 1
13 346 2 357 -3 3 -3 12 0 20 10 26 8 254 -2 258 -7 3 -7 5 0 5 11 1 13 346 2
357 -3 3 -3 12 0 20 10 26 8 254 -2 258 -7 3 -7 5 0 5 11 1 13 827 2 837 -3 3
-3 12 0 20 10 26 8 254 -2 258 -7 3 -7 5 0 5 11 1 13 186 2 197 -3 3 -3 12 0
20 10 26 8 254 -2 258 -7 3 -7 5 0 5 11 1 13 186 2 197 -3 3 -3 12 0 20 10 26
8 254 -2 258 -7 3 -7 5 0 5 11 1 13 827 2 837 -3 3 -3 12 0 20 10 26 8 254 -2
258 -7 3 -7 5 0 5 8 1 12 316 5 356 -1 6 -1 15 0 20 5 23 2 223 -3 232 -4 6
224 9 628 9 415 -1 636 2 639 9 3 6 5 4 5 -3 1 -7 4 -11 9 -9 11 8 9 -7327 -3
-7335 -6 -5 -6 -8 2 -8 7 0 10 -10 7 -23 l-4 -24 485 1 c317 1 485 -2 485 -9
0 -7 3 -7 8 0 4 6 96 10 239 10 149 0 233 -4 233 -10 0 -7 3 -7 8 0 4 6 95 10
237 10 142 0 233 -4 237 -10 5 -6 8 -5 8 3 0 9 7 11 20 7 11 -3 28 -2 37 4 10
6 14 11 8 11 -7 0 -9 1232 -8 3677 1 2023 2 3683 2 3689 1 7 193 11 641 11
351 0 637 -4 634 -9 -3 -4 1 -8 8 -8 8 0 9 -3 3 -8 -12 -8 -14 -232 -2 -232 5
0 5 -5 1 -11 -10 -17 -10 -109 0 -109 5 0 3 -7 -4 -15 -10 -12 -10 -15 1 -15
9 0 10 -3 4 -8 -12 -8 -14 -162 -2 -162 5 0 5 -5 1 -11 -10 -17 -10 -109 0
-109 5 0 3 -7 -4 -15 -10 -12 -10 -15 1 -15 9 0 10 -3 4 -8 -12 -8 -14 -162
-2 -162 5 0 5 -5 1 -11 -10 -17 -10 -109 0 -109 5 0 3 -7 -4 -15 -10 -12 -10
-15 1 -15 9 0 10 -3 4 -8 -12 -8 -14 -162 -2 -162 5 0 5 -5 1 -11 -10 -17 -10
-109 0 -109 5 0 3 -7 -4 -15 -10 -12 -10 -15 1 -15 9 0 10 -3 4 -8 -12 -8 -14
-162 -2 -162 5 0 5 -5 1 -11 -10 -17 -10 -109 0 -109 5 0 3 -7 -4 -15 -10 -12
-10 -15 1 -15 9 0 10 -3 4 -8 -12 -8 -14 -162 -2 -162 5 0 5 -5 1 -11 -10 -17
-10 -109 0 -109 5 0 3 -7 -4 -15 -10 -12 -10 -15 1 -15 9 0 10 -3 4 -8 -12 -8
-14 -162 -2 -162 5 0 5 -5 1 -11 -10 -17 -10 -109 0 -109 5 0 3 -7 -4 -15 -10
-12 -10 -15 1 -15 9 0 10 -3 4 -8 -12 -8 -14 -162 -2 -162 5 0 5 -5 1 -11 -10
-17 -10 -109 0 -109 5 0 3 -7 -4 -15 -10 -12 -10 -15 1 -15 9 0 10 -3 4 -8
-12 -8 -14 -162 -2 -162 5 0 5 -5 1 -11 -10 -17 -10 -109 0 -109 5 0 3 -7 -4
-15 -10 -12 -10 -15 1 -15 9 0 10 -3 4 -8 -12 -8 -14 -162 -2 -162 5 0 5 -5 1
-11 -10 -17 -10 -109 0 -109 5 0 3 -7 -4 -15 -10 -12 -10 -15 1 -15 9 0 10 -3
4 -8 -12 -8 -14 -162 -2 -162 5 0 5 -5 2 -11 -4 -6 -8 -61 -10 -122 -1 -62 -4
-112 -5 -112 -1 0 -3 -13 -5 -30 -1 -16 -5 -40 -9 -52 -4 -13 -9 -35 -12 -50
-7 -36 -43 -120 -70 -163 -36 -57 -86 -103 -139 -130 -17 -8 -32 -17 -35 -20
-13 -13 -156 -59 -200 -65 -14 -2 -25 -4 -25 -5 0 -1 -13 -3 -30 -5 -70 -9
-148 -21 -190 -28 -16 -3 -59 -8 -95 -12 l-66 -6 23 -92 c12 -51 25 -103 27
-117 2 -14 5 -25 6 -25 2 0 4 -9 6 -20 6 -35 25 -120 31 -135 3 -8 7 -22 8
-30 1 -8 7 -38 14 -66 7 -29 14 -60 16 -70 2 -11 4 -19 5 -19 2 0 9 -33 15
-65 2 -14 4 -26 6 -27 2 -3 2 -3 14 -58 4 -22 10 -47 13 -55 2 -8 5 -24 7 -35
1 -11 5 -27 9 -35 3 -8 8 -26 10 -40 3 -14 5 -25 6 -25 1 0 3 -11 6 -25 2 -14
7 -36 11 -50 9 -34 8 -30 17 -75 4 -22 11 -44 14 -50 3 -5 7 -21 8 -35 2 -14
7 -42 12 -62 6 -21 8 -38 5 -38 -3 0 -1 -6 4 -12 9 -11 16 -38 28 -103 1 -5 3
-12 4 -15 2 -3 5 -16 6 -30 4 -27 13 -65 15 -65 2 0 10 -34 14 -60 2 -11 4
-20 6 -20 1 0 3 -9 5 -20 12 -68 18 -90 24 -93 4 -1 6 -16 5 -32 -1 -17 1 -30
5 -30 4 0 8 -10 8 -22 1 -13 11 -61 23 -108 19 -77 29 -122 34 -157 1 -7 5
-15 8 -19 4 -3 4 -12 1 -20 -3 -8 -1 -14 5 -14 5 0 8 -10 7 -22 -3 -28 13 -44
43 -42 12 1 23 3 25 4 1 1 13 4 27 5 23 2 54 6 162 21 69 9 93 13 123 20 17 3
46 7 65 9 19 2 35 4 35 5 0 2 34 9 65 14 14 2 25 5 25 6 0 1 9 3 20 4 11 2 45
11 75 20 30 9 56 16 58 16 1 0 3 0 5 1 1 0 10 2 20 5 39 9 37 9 147 51 36 14
72 26 80 28 26 6 115 47 121 57 3 5 8 9 10 7 8 -5 79 25 79 34 0 4 5 5 10 2 6
-3 10 -1 10 5 0 6 5 8 10 5 6 -3 10 -2 10 3 0 5 8 12 18 16 9 3 26 11 37 18
11 7 57 37 102 66 46 29 83 58 83 64 0 6 3 9 6 5 4 -3 12 -1 19 6 6 7 24 21
40 32 39 27 252 240 297 295 20 25 48 59 62 76 14 18 26 37 26 43 0 6 4 11 8
11 5 0 17 16 28 35 10 19 22 35 26 35 4 0 14 15 22 34 8 18 19 37 25 40 6 4 9
12 6 17 -4 5 -1 9 4 9 6 0 11 4 11 10 0 5 20 44 45 86 25 41 45 79 45 82 0 4
7 20 15 36 8 15 12 32 9 37 -3 5 -1 9 4 9 9 0 25 37 23 53 -1 4 3 7 7 7 5 0 9
6 9 13 2 20 27 81 38 89 6 4 7 8 4 8 -4 0 2 28 13 63 11 34 21 67 22 72 1 6 5
16 9 23 5 6 5 12 1 12 -3 0 -1 7 6 15 7 9 10 18 7 22 -4 3 -3 11 2 17 5 6 12
27 15 46 11 65 17 94 22 102 3 5 7 18 10 31 2 12 6 33 9 47 3 14 8 41 11 60 3
19 12 73 20 120 14 81 19 119 30 255 3 33 7 76 9 95 2 19 4 81 5 138 2 68 6
102 14 102 8 0 8 2 0 8 -14 9 -14 173 0 165 5 -4 6 -1 0 8 -13 21 -13 239 0
239 8 0 8 2 0 8 -6 4 -10 39 -10 77 0 39 4 73 10 77 8 5 8 8 1 8 -12 0 -14 89
-2 107 4 6 3 14 -2 17 -10 7 -9 86 2 103 4 6 3 14 -2 17 -11 7 -9 86 3 105 6
9 5 12 -1 8 -13 -8 -12 126 2 135 7 5 7 8 -1 8 -12 0 -13 228 -1 247 4 6 3 14
-2 17 -10 7 -9 86 2 103 4 6 3 14 -2 17 -11 7 -9 86 3 105 6 9 5 12 -1 8 -6
-4 -9 20 -9 63 0 41 5 70 11 70 6 0 6 3 -1 8 -14 10 -14 284 0 294 8 5 8 8 0
8 -6 0 -10 29 -10 75 0 46 4 75 10 75 7 0 8 3 1 8 -13 10 -15 123 -2 115 6 -4
7 -1 1 8 -12 20 -14 120 -1 112 6 -4 7 -1 1 8 -13 20 -12 159 0 159 8 0 8 3 1
8 -14 9 -15 143 -2 135 6 -4 7 -1 1 8 -13 21 -13 239 0 239 8 0 8 2 0 8 -6 4
-10 39 -10 77 0 39 4 73 10 77 8 5 8 8 1 8 -12 0 -14 89 -2 107 4 6 3 14 -2
17 -10 6 -9 86 1 102 4 6 4 14 0 18 -12 13 -10 126 2 119 8 -5 8 -3 0 8 -6 8
-10 34 -10 59 l1 45 165 0 c98 0 168 4 172 10 5 6 8 6 8 -1 0 -6 7 -11 16 -11
13 0 15 11 12 64 -2 35 0 63 3 63 4 0 3 18 -1 40 -4 22 -4 40 -1 40 3 0 4 32
1 70 -3 39 -3 70 1 70 3 0 3 23 -1 50 -4 28 -4 50 0 50 3 0 3 30 0 66 -3 36
-3 67 0 69 4 2 4 27 0 55 -4 27 -4 50 -1 50 4 0 4 32 1 70 -3 39 -3 70 1 70 3
0 3 23 -1 50 -4 28 -4 50 0 50 3 0 3 30 0 66 -3 36 -3 67 0 69 4 2 4 27 0 55
-4 27 -4 50 -1 50 4 0 4 32 1 70 -3 39 -3 70 1 70 3 0 3 23 -1 50 -4 28 -4 50
0 50 3 0 3 30 0 66 -3 36 -3 67 0 69 4 2 4 27 0 55 -4 27 -4 50 -1 50 4 0 4
32 1 70 -3 39 -3 70 1 70 3 0 3 23 -1 50 -4 28 -4 50 -1 50 4 0 4 32 1 70 -3
39 -3 70 0 70 3 0 4 26 2 57 -2 32 -3 65 -3 73 -1 13 -212 15 -1840 15 -1011
0 -1839 -3 -1839 -7 0 -4 -6 -5 -12 -3 -10 4 -13 130 -12 588 l1 582 -997 0
-996 0 0 -582z"/>
<path d="M1866 17038 c3 -4 1 -8 -3 -8 -10 0 -10 -76 0 -86 3 -4 3 -14 -1 -23
-6 -14 -8 -77 -2 -91 5 -14 6 -49 0 -45 -8 5 -6 -67 3 -82 4 -6 3 -14 -3 -18
-6 -4 -7 -12 -3 -18 9 -15 12 -47 3 -42 -8 5 -6 -72 3 -81 3 -4 3 -14 -1 -23
-6 -14 -8 -77 -2 -91 5 -14 6 -49 0 -45 -8 5 -6 -72 3 -81 3 -4 3 -14 -1 -23
-6 -14 -8 -77 -2 -91 5 -14 6 -49 0 -45 -3 2 -5 -15 -4 -38 1 -23 3 -42 4 -42
1 0 3 -10 4 -22 1 -12 0 -20 -4 -18 -9 6 -5 -59 5 -75 5 -8 4 -11 -2 -7 -12 7
-10 -54 2 -73 5 -8 4 -11 -2 -7 -12 7 -10 -54 2 -73 5 -8 4 -11 -2 -7 -12 7
-10 -54 2 -73 5 -8 4 -11 -2 -7 -12 7 -10 -54 2 -73 5 -8 4 -11 -2 -7 -12 7
-10 -54 2 -73 5 -8 4 -11 -2 -7 -12 7 -10 -54 2 -73 5 -7 4 -11 -1 -7 -5 3 -8
-30 -7 -76 1 -45 2 -82 3 -82 1 0 3 -10 4 -22 1 -12 0 -20 -4 -18 -8 5 -6 -72
3 -81 3 -4 3 -14 -1 -23 -6 -14 -8 -77 -2 -91 6 -16 5 -48 -1 -44 -4 2 -7 -5
-6 -16 1 -11 5 -20 10 -20 5 0 4 -7 -3 -15 -10 -12 -10 -19 -2 -27 8 -8 8 -17
1 -30 -13 -24 5 -31 66 -26 25 2 45 -1 45 -5 0 -5 5 -5 11 -2 17 11 149 11
149 0 0 -7 3 -7 8 0 8 12 152 14 152 2 0 -5 5 -5 11 -2 17 11 149 11 149 0 0
-7 3 -7 8 0 8 12 152 14 152 2 0 -5 5 -5 11 -1 6 3 32 7 58 8 44 1 46 0 48
-26 0 -17 -3 -25 -10 -21 -6 4 -7 1 -1 -8 13 -20 12 -159 0 -159 -8 0 -8 -3 0
-8 12 -8 13 -160 1 -179 -4 -6 -3 -14 2 -17 11 -7 9 -25 -3 -45 -6 -9 -5 -12
1 -8 6 4 9 -22 9 -68 0 -45 -4 -75 -11 -75 -7 0 -7 -3 0 -8 7 -4 11 -56 12
-127 1 -213 7 -355 16 -355 4 0 3 -9 -3 -20 -6 -11 -7 -20 -2 -20 4 0 8 -15 9
-32 2 -55 12 -140 23 -198 6 -30 13 -68 16 -85 2 -16 6 -40 9 -52 3 -13 7 -31
9 -41 2 -10 11 -42 20 -70 8 -29 15 -54 16 -57 0 -3 2 -10 4 -17 22 -77 31
-105 39 -115 5 -7 6 -17 2 -23 -3 -5 -1 -10 4 -10 6 0 11 -5 11 -11 0 -11 23
-67 41 -101 5 -10 9 -24 9 -32 0 -8 4 -16 9 -18 5 -1 11 -10 13 -18 2 -8 5
-17 8 -20 3 -3 16 -27 30 -55 28 -56 81 -138 93 -143 4 -2 7 -8 7 -14 0 -22
124 -172 223 -268 37 -36 67 -64 67 -61 0 3 7 -5 16 -17 8 -12 20 -22 26 -22
6 0 21 -11 34 -25 13 -14 26 -25 30 -25 3 0 20 -11 38 -25 45 -37 47 -38 91
-61 60 -31 89 -48 95 -56 5 -6 53 -28 70 -33 3 0 19 -9 37 -18 18 -9 39 -17
48 -17 8 0 15 -4 15 -9 0 -5 12 -12 28 -16 15 -5 33 -10 40 -12 6 -1 18 -5 25
-6 6 -2 26 -9 42 -16 17 -7 39 -14 50 -15 12 -1 25 -5 31 -9 6 -3 21 -8 35
-11 13 -3 35 -8 49 -11 14 -3 41 -8 60 -11 19 -3 49 -10 66 -15 18 -5 59 -11
92 -12 33 -1 58 -5 56 -8 -2 -4 6 -7 19 -7 12 0 69 -3 127 -7 216 -13 270 -13
263 -3 -4 7 -1 8 8 2 21 -13 160 -14 152 -1 -4 6 -1 7 8 1 21 -13 160 -14 152
-1 -4 6 -1 7 8 1 21 -13 160 -14 152 -1 -4 6 -1 7 8 1 19 -11 208 -14 215 -3
3 5 11 6 17 2 20 -13 121 -12 129 0 4 7 8 7 8 2 0 -12 308 -14 326 -3 6 4 14
4 18 0 13 -12 87 -12 80 0 -5 7 -2 8 7 2 21 -13 160 -14 152 -1 -4 6 -1 7 8 1
22 -13 199 -14 199 0 0 7 3 7 8 1 10 -15 312 -15 312 -1 0 7 3 8 8 1 9 -14
273 -15 265 -2 -4 6 -1 7 8 1 21 -13 160 -14 152 -1 -4 6 -1 7 8 1 19 -11 208
-14 215 -3 3 5 11 6 17 2 20 -13 121 -12 129 0 5 7 8 8 8 2 0 -7 38 -11 103
-10 l103 0 -2 -565 c-1 -311 -5 -587 -8 -615 -8 -61 -16 -139 -19 -182 -1 -18
-6 -33 -10 -33 -5 0 -7 -6 -4 -12 2 -7 -2 -25 -10 -40 -7 -16 -11 -28 -9 -28
10 0 -46 -136 -74 -180 -39 -60 -136 -147 -173 -154 -7 -1 -30 -10 -52 -20
-22 -10 -47 -19 -55 -21 -8 -1 -34 -8 -57 -14 -23 -6 -45 -11 -50 -10 -4 1
-10 0 -13 -1 -22 -8 -72 -11 -251 -14 -113 -1 -211 -6 -217 -10 -7 -4 -12 -3
-12 1 0 11 -211 10 -228 -1 -6 -4 -12 -4 -12 1 0 10 -691 10 -708 -1 -6 -4
-12 -3 -12 1 0 11 -211 10 -228 -1 -6 -4 -12 -4 -12 1 0 10 -1011 10 -1028 0
-6 -5 -12 -4 -12 0 0 11 -211 10 -228 -1 -6 -4 -12 -4 -12 1 0 10 -691 10
-708 -1 -6 -4 -12 -3 -12 1 0 11 -211 10 -228 -1 -6 -4 -12 -4 -12 1 0 10
-691 10 -708 -1 -6 -4 -12 -3 -12 1 0 11 -211 10 -228 -1 -6 -4 -12 -3 -12 1
0 5 -45 9 -99 8 -86 0 -101 -3 -111 -19 -6 -10 -7 -16 -3 -13 14 9 12 -1726
-1 -1735 -8 -6 -8 -8 0 -8 7 0 10 -58 10 -181 -1 -99 1 -184 4 -188 8 -12
4690 -9 4682 4 -3 6 0 5 9 -1 19 -15 238 -11 609 11 30 1 55 4 55 5 0 1 18 4
40 5 52 4 196 26 215 33 8 3 26 7 40 8 72 8 91 12 97 18 3 3 17 6 30 6 16 0
22 4 17 12 -4 7 -3 8 4 4 6 -4 46 3 89 14 43 12 86 22 96 21 9 0 15 4 12 10
-4 5 2 9 12 9 10 0 52 11 93 26 41 14 83 28 93 31 9 3 17 9 17 14 0 5 3 8 8 7
10 -4 94 29 149 58 83 45 138 76 151 86 6 6 12 7 12 4 0 -4 7 -1 15 6 30 27
44 38 50 38 8 0 152 108 200 150 110 96 325 331 325 354 0 4 9 15 20 26 11 11
20 27 20 35 0 8 4 15 9 15 5 0 16 16 25 35 9 19 21 35 26 35 6 0 9 3 8 8 -3
12 24 62 34 62 4 0 8 9 8 19 0 11 3 21 8 23 8 4 93 176 96 195 1 7 7 18 13 24
6 6 9 18 6 25 -3 8 0 14 6 14 7 0 11 6 10 13 -1 6 7 32 18 57 11 25 24 59 28
75 5 17 9 33 10 38 2 4 3 8 5 10 1 1 3 9 5 17 10 40 15 60 34 122 10 36 17 69
13 72 -3 3 0 6 7 6 7 0 10 4 7 8 -3 4 0 26 5 48 6 21 13 55 16 74 3 19 10 38
15 41 6 4 8 11 4 17 -3 5 -1 34 4 63 16 78 23 130 24 161 1 14 4 24 7 22 3 -2
6 13 6 34 1 38 8 120 18 182 3 19 6 63 7 98 1 35 6 66 10 68 4 3 4 13 -2 23
-5 10 -7 21 -3 24 3 4 6 68 7 145 1 76 5 143 9 149 4 6 1 14 -5 17 -8 4 -9 8
-3 11 11 5 11 127 0 144 -3 6 -3 11 2 11 10 0 8 93 -1 109 -4 6 -1 11 6 11 9
0 9 3 -2 10 -8 5 -10 10 -5 10 6 0 9 19 8 42 -1 24 -2 43 -3 43 0 0 -1 82 -3
183 -1 100 0 182 3 182 8 0 4 65 -4 78 -4 7 -4 12 1 12 10 0 8 93 -1 109 -4 6
-3 11 2 11 6 0 8 9 5 19 -4 17 0 19 46 15 37 -2 50 0 45 8 -5 7 -3 8 7 2 21
-13 160 -14 152 -1 -4 6 -1 7 8 1 8 -5 51 -9 97 -10 66 -1 82 2 78 13 -3 7 -2
13 2 13 6 0 7 75 1 90 -1 3 -1 9 0 14 6 27 2 176 -3 185 -4 6 -4 11 1 11 12 0
10 74 -2 82 -7 5 -7 8 0 8 8 0 12 157 4 180 -1 3 -1 9 0 14 6 27 2 176 -3 185
-4 6 -4 11 1 11 12 0 10 74 -2 82 -7 5 -7 8 0 8 8 0 12 157 4 180 -1 3 -1 9 0
14 6 27 2 176 -3 185 -4 6 -4 11 1 11 12 0 10 74 -2 82 -7 5 -7 8 0 8 8 0 12
157 4 180 -1 3 -1 9 0 14 6 27 2 176 -3 185 -4 6 -4 11 1 11 12 0 10 74 -2 82
-7 5 -7 8 0 8 10 0 12 167 2 176 -3 3 -2 16 2 30 3 14 5 43 3 65 -4 38 -6 40
-33 35 -16 -2 -29 0 -29 5 0 6 -5 7 -12 3 -18 -11 -68 -12 -68 -2 0 5 -5 6
-12 2 -16 -10 -87 -13 -93 -4 -3 4 -17 5 -32 3 -61 -9 -103 -9 -103 -1 0 5 -5
6 -12 2 -18 -11 -68 -12 -68 -2 0 5 -5 6 -12 2 -19 -12 -68 -12 -68 0 0 6 -4
5 -9 -3 -6 -9 -11 -10 -15 -2 -4 6 -13 8 -19 4 -19 -12 -37 -12 -37 -2 0 6 -5
7 -12 3 -16 -10 -87 -13 -93 -4 -3 4 -17 5 -32 3 -61 -9 -103 -9 -103 -1 0 5
-5 6 -12 2 -18 -11 -68 -12 -68 -2 0 5 -5 6 -12 2 -19 -12 -68 -12 -68 0 0 6
-4 5 -9 -3 -6 -9 -11 -10 -15 -2 -4 6 -13 8 -19 4 -19 -12 -37 -12 -37 -2 0 6
-5 7 -12 3 -16 -10 -87 -13 -93 -4 -3 4 -17 5 -32 3 -61 -9 -103 -9 -103 -1 0
5 -5 6 -12 2 -18 -11 -68 -12 -68 -2 0 5 -5 6 -12 2 -16 -10 -87 -13 -93 -4
-3 4 -17 5 -32 3 -61 -9 -103 -9 -103 -1 0 5 -5 6 -12 2 -18 -11 -68 -12 -68
-2 0 5 -5 6 -12 2 -19 -12 -68 -12 -68 0 0 6 -4 5 -9 -3 -6 -9 -11 -10 -15 -2
-4 6 -13 8 -19 4 -19 -12 -37 -12 -37 -2 0 6 -5 7 -12 3 -16 -10 -87 -13 -93
-4 -3 4 -17 5 -32 3 -61 -9 -103 -9 -103 -1 0 5 -5 6 -12 2 -18 -11 -68 -12
-68 -2 0 5 -5 6 -12 2 -19 -12 -68 -12 -68 0 0 6 -4 5 -9 -3 -6 -9 -11 -10
-15 -2 -4 6 -13 8 -19 4 -19 -12 -37 -12 -37 -2 0 6 -5 7 -12 3 -16 -10 -87
-13 -93 -4 -3 4 -17 5 -32 3 -61 -9 -103 -9 -103 -1 0 5 -5 6 -12 2 -18 -11
-68 -12 -68 -2 0 5 -5 6 -12 2 -16 -10 -87 -13 -93 -4 -3 4 -17 5 -32 3 -68
-10 -84 -10 -89 -2 -3 5 -10 6 -16 3 -18 -11 -78 -11 -78 0 0 6 -4 5 -9 -3 -6
-9 -11 -10 -15 -2 -4 6 -12 9 -17 5 -16 -10 -59 -12 -65 -3 -2 5 -15 4 -27 0
-12 -5 -32 -5 -44 0 -12 4 -25 5 -27 0 -7 -10 -47 -8 -65 3 -11 7 -12 6 -6 -5
8 -12 6 -12 -8 0 -9 7 -17 9 -17 4 0 -10 -112 -9 -128 1 -6 3 -13 2 -17 -4 -4
-6 -13 -7 -23 -1 -9 4 -26 6 -37 4 -32 -7 -152 -6 -163 1 -6 3 -14 2 -17 -4
-5 -8 -11 -7 -21 1 -8 6 -14 7 -14 2 0 -11 -29 -11 -48 1 -6 4 -12 4 -12 -1 0
-9 -106 -10 -116 -1 -3 4 -11 5 -17 2 -26 -9 -77 -11 -77 -2 0 5 -9 4 -20 -2
-14 -8 -20 -8 -20 0 0 6 -4 8 -10 5 -19 -12 -51 -14 -76 -5 -13 5 -24 6 -24 1
0 -10 -43 -6 -61 5 -7 4 -9 3 -6 -3 7 -11 -60 -10 -70 1 -3 3 -14 1 -24 -5
-14 -7 -19 -6 -19 3 0 10 -2 10 -8 1 -5 -8 -13 -9 -22 -3 -8 5 -21 5 -32 -1
-12 -7 -18 -6 -18 1 0 6 -5 8 -12 4 -16 -10 -48 -13 -48 -5 0 6 -26 6 -102 -2
-21 -2 -38 0 -38 5 0 4 -5 8 -11 8 -5 0 -8 -4 -5 -8 5 -9 -52 -7 -61 2 -3 3
-14 1 -24 -5 -14 -7 -19 -6 -19 3 0 10 -2 10 -8 1 -5 -8 -13 -9 -22 -3 -18 12
-33 13 -27 3 3 -5 -17 -8 -44 -8 -27 0 -49 4 -49 8 0 4 -8 3 -18 -2 -10 -5
-24 -6 -31 -2 -7 5 -28 5 -47 1 -20 -5 -34 -4 -34 1 0 6 -8 6 -17 2 -22 -11
-44 -10 -62 1 -7 5 -16 5 -20 0 -8 -12 -81 -14 -81 -3 0 5 -11 5 -23 0 -13 -5
-29 -6 -36 -1 -7 4 -28 4 -47 0 -20 -5 -34 -4 -34 2 0 5 -6 6 -12 2 -11 -7
-53 -10 -60 -4 -10 6 -38 7 -38 0 0 -4 -12 -5 -27 -3 -16 2 -44 5 -63 6 l-35
2 -5 73 c-3 39 -1 73 4 75 5 2 4 13 -3 24 -6 13 -7 24 -2 28 6 3 6 17 1 35 -5
17 -5 30 0 30 8 0 5 38 -5 67 -2 6 1 13 7 15 8 3 8 10 0 25 -6 11 -9 23 -5 26
9 10 9 87 0 87 -5 0 -5 5 -1 11 9 16 11 89 2 89 -4 0 -5 7 -2 14 9 24 10 226
1 226 -5 0 -5 5 -1 11 4 7 7 21 8 32 1 16 8 20 39 21 20 1 37 -3 37 -7 0 -5 5
-5 11 -2 17 11 149 11 149 0 0 -7 3 -7 8 0 8 12 152 14 152 2 0 -5 5 -5 11 -2
17 11 149 11 149 0 0 -7 3 -7 8 0 8 12 152 14 152 2 0 -5 5 -5 11 -2 17 11
149 11 149 0 0 -7 3 -7 8 0 8 12 152 14 152 2 0 -5 5 -5 11 -2 17 11 149 11
149 0 0 -7 3 -7 8 0 8 12 152 14 152 2 0 -5 5 -5 11 -2 17 11 149 11 149 0 0
-7 3 -7 8 0 8 12 152 14 152 2 0 -5 5 -5 11 -2 17 11 149 11 149 0 0 -7 3 -7
8 0 8 12 152 14 152 2 0 -5 5 -5 11 -2 17 11 149 11 149 0 0 -7 3 -7 8 0 8 12
152 14 152 2 0 -5 5 -5 11 -2 17 11 149 11 149 0 0 -7 3 -7 8 0 8 12 152 14
152 2 0 -5 5 -5 11 -2 17 11 149 11 149 0 0 -7 3 -7 8 0 8 12 152 14 152 2 0
-5 5 -5 11 -2 17 11 149 11 149 0 0 -7 3 -7 8 0 8 12 152 14 152 2 0 -5 5 -5
11 -2 17 11 149 11 149 0 0 -7 3 -7 8 0 8 12 152 14 152 2 0 -5 5 -5 11 -2 17
11 149 11 149 0 0 -7 3 -7 8 0 8 12 152 14 152 2 0 -5 5 -5 11 -2 17 11 149
11 149 0 0 -7 3 -7 8 0 8 12 152 14 152 2 0 -5 5 -5 11 -2 17 11 149 11 149 0
0 -7 3 -7 8 0 8 12 152 14 152 2 0 -5 5 -5 11 -2 17 11 149 11 149 0 0 -7 3
-7 8 0 8 12 152 14 152 2 0 -5 5 -5 11 -2 17 11 149 11 153 0 3 -7 5 -7 5 0 1
6 31 9 73 8 l73 -2 0 37 c0 20 -4 43 -9 51 -7 11 -6 12 5 6 12 -8 12 -6 0 8
-7 9 -10 17 -5 17 8 0 11 67 4 88 -1 4 -1 12 0 17 7 31 6 75 -2 75 -5 0 -6 6
-2 12 11 18 12 48 2 54 -4 3 -5 10 -2 16 10 16 12 78 2 78 -5 0 -6 5 -2 12 12
19 12 82 0 97 -9 12 -8 13 4 6 13 -8 13 -7 1 8 -7 9 -10 17 -5 17 13 0 12 93
-1 103 -7 4 -7 10 0 15 12 9 13 72 1 91 -7 11 -6 12 5 6 12 -8 12 -6 0 8 -7 9
-10 17 -5 17 13 0 12 93 -1 103 -7 4 -7 10 0 15 12 9 13 72 1 91 -7 11 -6 12
5 6 12 -8 12 -6 0 8 -7 9 -10 17 -5 17 8 0 11 67 4 88 -1 4 -1 12 0 17 7 31 6
75 -2 75 -5 0 -6 6 -2 12 11 18 12 48 2 54 -4 3 -5 10 -2 16 10 16 12 78 2 78
-5 0 -6 5 -2 12 12 19 12 82 0 97 -9 12 -8 13 4 6 13 -8 13 -7 1 8 -7 9 -10
17 -5 17 13 0 12 93 -1 103 -7 4 -7 10 0 15 12 9 13 72 1 91 -7 11 -6 12 5 6
12 -8 12 -6 0 8 -7 9 -10 17 -5 17 13 0 12 93 -1 103 -7 4 -7 10 0 15 12 9 13
72 1 91 -7 11 -6 12 5 6 12 -8 12 -6 0 8 -7 9 -10 17 -5 17 13 0 12 93 -1 106
-7 9 -14 9 -23 1 -8 -6 -16 -7 -20 -1 -8 10 -52 14 -52 4 0 -3 -9 -6 -20 -6
-11 0 -20 4 -20 9 0 5 -6 4 -13 -2 -8 -6 -17 -8 -21 -4 -8 9 -46 12 -46 3 0
-3 -9 -6 -20 -6 -11 0 -20 3 -20 7 0 9 -21 6 -37 -4 -8 -5 -13 -3 -13 4 0 8
-4 8 -15 -1 -9 -8 -15 -8 -15 -2 0 7 -10 8 -30 2 -19 -5 -28 -5 -25 1 9 13 -9
11 -23 -3 -9 -9 -12 -9 -12 2 0 13 -2 13 -10 0 -8 -12 -10 -12 -10 -1 0 10 -3
11 -13 3 -7 -6 -18 -7 -26 -3 -8 5 -27 5 -43 1 -17 -5 -26 -5 -23 1 9 13 -9
11 -23 -3 -9 -9 -12 -9 -12 2 0 13 -2 13 -10 0 -8 -12 -10 -12 -10 -1 0 10 -3
11 -13 2 -8 -6 -16 -8 -20 -5 -8 8 -57 12 -57 5 0 -4 -9 -7 -20 -7 -11 0 -20
3 -20 7 0 9 -21 6 -37 -4 -8 -5 -13 -3 -13 4 0 8 -4 8 -15 -1 -10 -8 -15 -9
-15 -1 0 7 -8 8 -25 1 -17 -7 -25 -6 -25 1 0 8 -5 7 -15 -1 -8 -7 -15 -8 -15
-3 0 5 -9 9 -20 9 -11 0 -20 -3 -20 -6 0 -3 -9 -6 -20 -6 -11 0 -20 4 -20 9 0
5 -7 4 -15 -3 -8 -7 -15 -9 -15 -4 0 5 -11 9 -25 9 -14 0 -25 -2 -25 -5 0 -3
-9 -6 -20 -6 -11 0 -20 4 -20 9 0 5 -6 4 -13 -2 -8 -6 -17 -8 -21 -4 -8 9 -46
12 -46 3 0 -3 -9 -6 -20 -6 -11 0 -20 3 -20 7 0 9 -21 6 -37 -4 -8 -5 -13 -3
-13 4 0 8 -4 8 -15 -1 -9 -8 -15 -8 -15 -2 0 7 -10 8 -30 2 -19 -5 -28 -5 -25
1 9 13 -9 11 -23 -3 -9 -9 -12 -9 -12 2 0 13 -2 13 -10 0 -8 -12 -10 -12 -10
-1 0 10 -3 11 -13 3 -7 -6 -18 -7 -26 -3 -8 5 -27 5 -43 1 -17 -5 -26 -5 -23
1 9 13 -9 11 -23 -3 -9 -9 -12 -9 -12 2 0 13 -2 13 -10 0 -8 -12 -10 -12 -10
-1 0 10 -3 11 -13 2 -8 -6 -16 -8 -20 -5 -8 8 -57 12 -57 5 0 -4 -9 -7 -20 -7
-11 0 -20 3 -20 7 0 9 -21 6 -37 -4 -8 -5 -13 -3 -13 4 0 8 -4 8 -15 -1 -10
-8 -15 -9 -15 -1 0 7 -8 8 -25 1 -17 -7 -25 -6 -25 1 0 8 -5 7 -15 -1 -8 -7
-15 -8 -15 -3 0 5 -9 9 -20 9 -11 0 -20 -3 -20 -6 0 -3 -9 -6 -20 -6 -11 0
-20 4 -20 9 0 5 -7 4 -15 -3 -8 -7 -15 -9 -15 -4 0 5 -11 9 -25 9 -14 0 -25
-2 -25 -5 0 -3 -9 -6 -20 -6 -11 0 -20 4 -20 9 0 5 -6 4 -13 -2 -8 -6 -17 -8
-21 -4 -8 9 -46 12 -46 3 0 -3 -9 -6 -20 -6 -11 0 -20 3 -20 7 0 9 -21 6 -37
-4 -8 -5 -13 -3 -13 4 0 8 -4 8 -15 -1 -8 -7 -15 -8 -15 -3 0 5 -9 9 -20 9
-11 0 -20 -3 -20 -6 0 -3 -9 -6 -20 -6 -11 0 -20 3 -20 7 0 9 -21 6 -37 -4 -8
-5 -13 -3 -13 4 0 8 -4 8 -15 -1 -10 -8 -15 -9 -15 -1 0 7 -8 8 -25 1 -17 -7
-25 -6 -25 1 0 8 -5 7 -15 -1 -8 -7 -15 -8 -15 -3 0 5 -9 9 -20 9 -11 0 -20
-3 -20 -6 0 -3 -9 -6 -20 -6 -11 0 -20 4 -20 9 0 5 -7 4 -15 -3 -8 -7 -15 -9
-15 -4 0 5 -11 9 -25 9 -14 0 -25 -2 -25 -5 0 -3 -9 -6 -20 -6 -11 0 -20 4
-20 9 0 5 -6 4 -13 -2 -8 -6 -17 -8 -21 -4 -8 9 -46 12 -46 3 0 -3 -9 -6 -20
-6 -11 0 -20 3 -20 7 0 9 -21 6 -37 -4 -8 -5 -13 -3 -13 4 0 8 -4 8 -15 -1 -9
-8 -15 -8 -15 -2 0 7 -10 8 -30 2 -19 -5 -28 -5 -25 1 9 13 -9 11 -23 -3 -9
-9 -12 -9 -12 3 0 12 -2 12 -10 -1 -8 -12 -10 -12 -10 -1 0 10 -3 11 -13 3 -7
-6 -18 -7 -26 -3 -8 5 -27 5 -43 1 -17 -5 -26 -5 -23 1 9 13 -9 11 -23 -3 -9
-9 -12 -9 -12 3 0 12 -2 12 -10 -1 -8 -12 -10 -12 -10 -1 0 10 -3 11 -13 2 -8
-6 -16 -8 -20 -5 -8 8 -57 12 -57 5 0 -4 -9 -7 -20 -7 -11 0 -20 3 -20 7 0 9
-21 6 -37 -4 -8 -5 -13 -3 -13 4 0 8 -4 8 -15 -1 -10 -8 -15 -9 -15 -1 0 7 -8
8 -25 1 -17 -7 -25 -6 -25 1 0 8 -5 7 -15 -1 -8 -7 -15 -8 -15 -3 0 5 -9 9
-20 9 -11 0 -20 -3 -20 -6 0 -3 -9 -6 -20 -6 -11 0 -20 4 -20 9 0 5 -7 4 -15
-3 -8 -7 -15 -9 -15 -4 0 5 -11 9 -25 9 -14 0 -25 -2 -25 -5 0 -3 -9 -6 -20
-6 -11 0 -20 4 -20 9 0 5 -6 4 -13 -2 -8 -6 -17 -8 -21 -4 -8 9 -46 12 -46 3
0 -3 -9 -6 -20 -6 -11 0 -20 3 -20 7 0 9 -21 6 -37 -4 -8 -5 -13 -3 -13 4 0 8
-4 8 -15 -1 -9 -8 -15 -8 -15 -2 0 7 -10 8 -30 2 -19 -5 -28 -5 -25 1 9 13 -9
11 -23 -3 -9 -9 -12 -9 -12 3 0 12 -2 12 -10 -1 -8 -12 -10 -12 -10 -1 0 10
-3 11 -13 3 -7 -6 -18 -7 -26 -3 -8 5 -27 5 -43 1 -17 -5 -26 -5 -23 1 9 13
-9 11 -23 -3 -9 -9 -12 -9 -12 3 0 12 -2 12 -10 -1 -8 -12 -10 -12 -10 -1 0
10 -3 11 -13 2 -8 -6 -16 -8 -20 -5 -8 8 -57 12 -57 5 0 -4 -9 -7 -20 -7 -11
0 -20 3 -20 7 0 9 -21 6 -37 -4 -8 -5 -13 -3 -13 4 0 8 -4 8 -15 -1 -10 -8
-15 -9 -15 -1 0 7 -8 8 -25 1 -17 -7 -25 -6 -25 1 0 8 -5 7 -15 -1 -8 -7 -15
-8 -15 -3 0 5 -9 9 -20 9 -11 0 -20 -3 -20 -6 0 -3 -9 -6 -20 -6 -11 0 -20 4
-20 9 0 5 -7 4 -15 -3 -8 -7 -15 -9 -15 -4 0 5 -11 9 -25 9 -14 0 -25 -2 -25
-5 0 -3 -9 -6 -20 -6 -11 0 -20 4 -20 9 0 5 -6 4 -13 -2 -8 -6 -17 -8 -21 -4
-8 9 -46 12 -46 3 0 -3 -9 -6 -20 -6 -11 0 -20 3 -20 7 0 9 -21 6 -37 -4 -8
-5 -13 -3 -13 4 0 8 -4 8 -15 -1 -8 -7 -15 -8 -15 -3 0 5 -9 9 -20 9 -11 0
-20 -3 -20 -6 0 -3 -9 -6 -20 -6 -11 0 -20 3 -20 7 0 9 -21 6 -37 -4 -8 -5
-13 -3 -13 4 0 8 -4 8 -15 -1 -10 -8 -15 -9 -15 -1 0 7 -8 8 -25 1 -17 -7 -25
-6 -25 1 0 8 -5 7 -15 -1 -8 -7 -15 -8 -15 -3 0 5 -9 9 -20 9 -11 0 -20 -3
-20 -6 0 -3 -9 -6 -20 -6 -11 0 -20 4 -20 9 0 5 -7 4 -15 -3 -8 -7 -15 -9 -15
-4 0 5 -11 9 -25 9 -14 0 -25 -2 -25 -5 0 -3 -9 -6 -20 -6 -11 0 -20 4 -20 9
0 5 -6 4 -13 -2 -8 -6 -17 -8 -21 -4 -8 9 -46 12 -46 3 0 -3 -9 -6 -20 -6 -11
0 -20 3 -20 7 0 9 -21 6 -37 -4 -8 -5 -13 -3 -13 4 0 8 -4 8 -15 -1 -9 -8 -15
-8 -15 -2 0 7 -10 8 -30 2 -19 -5 -28 -5 -25 1 9 13 -9 11 -23 -3 -9 -9 -12
-9 -12 2 0 13 -2 13 -10 0 -8 -12 -10 -12 -10 -1 0 10 -3 11 -13 3 -7 -6 -18
-7 -26 -3 -8 5 -27 5 -43 1 -17 -5 -26 -5 -23 1 9 13 -9 11 -23 -3 -9 -9 -12
-9 -12 2 0 13 -2 13 -10 0 -8 -12 -10 -12 -10 -1 0 10 -3 11 -13 2 -8 -6 -16
-8 -20 -5 -8 8 -57 12 -57 5 0 -4 -9 -7 -20 -7 -11 0 -20 3 -20 7 0 9 -21 6
-37 -4 -8 -5 -13 -3 -13 4 0 8 -4 8 -15 -1 -10 -8 -15 -9 -15 -1 0 7 -8 8 -25
1 -17 -7 -25 -6 -25 1 0 8 -5 7 -15 -1 -8 -7 -15 -8 -15 -3 0 5 -9 9 -20 9
-11 0 -20 -3 -20 -6 0 -3 -9 -6 -20 -6 -11 0 -20 4 -20 9 0 5 -7 4 -15 -3 -8
-7 -15 -9 -15 -4 0 5 -11 9 -25 9 -14 0 -25 -2 -25 -5 0 -3 -9 -6 -20 -6 -11
0 -20 4 -20 9 0 5 -6 4 -13 -2 -8 -6 -17 -8 -21 -4 -8 9 -46 12 -46 3 0 -3 -9
-6 -20 -6 -11 0 -20 3 -20 7 0 9 -21 6 -37 -4 -8 -5 -13 -3 -13 4 0 8 -4 8
-15 -1 -9 -8 -15 -8 -15 -2 0 7 -10 8 -30 2 -19 -5 -28 -5 -25 1 9 13 -9 11
-23 -3 -9 -9 -12 -9 -12 3 0 12 -2 12 -10 -1 -8 -12 -10 -12 -10 -1 0 10 -3
11 -13 3 -7 -6 -18 -7 -26 -3 -8 5 -27 5 -43 1 -17 -5 -26 -5 -23 1 9 13 -9
11 -23 -3 -9 -9 -12 -9 -12 3 0 12 -2 12 -10 -1 -8 -12 -10 -12 -10 -1 0 10
-3 11 -13 2 -8 -6 -16 -8 -20 -5 -8 8 -57 12 -57 5 0 -4 -9 -7 -20 -7 -11 0
-20 3 -20 7 0 9 -21 6 -37 -4 -8 -5 -13 -3 -13 4 0 8 -4 8 -15 -1 -10 -8 -15
-9 -15 -1 0 7 -8 8 -25 1 -17 -7 -25 -6 -25 1 0 8 -5 7 -15 -1 -8 -7 -15 -8
-15 -3 0 5 -9 9 -20 9 -11 0 -20 -3 -20 -6 0 -3 -9 -6 -20 -6 -11 0 -20 4 -20
9 0 5 -7 4 -15 -3 -8 -7 -15 -9 -15 -4 0 5 -11 9 -25 9 -14 0 -25 -2 -25 -5 0
-3 -9 -6 -20 -6 -11 0 -20 4 -20 9 0 5 -6 4 -13 -2 -8 -6 -17 -8 -21 -4 -8 9
-46 12 -46 3 0 -3 -9 -6 -20 -6 -11 0 -20 3 -20 7 0 9 -21 6 -37 -4 -8 -5 -13
-3 -13 4 0 8 -4 8 -15 -1 -8 -7 -15 -8 -15 -3 0 5 -9 9 -20 9 -11 0 -20 -3
-20 -6 0 -3 -9 -6 -20 -6 -11 0 -20 3 -20 7 0 9 -21 6 -37 -4 -8 -5 -13 -3
-13 4 0 8 -4 8 -15 -1 -10 -8 -15 -9 -15 -1 0 7 -8 8 -25 1 -17 -7 -25 -6 -25
1 0 8 -5 7 -15 -1 -8 -7 -15 -8 -15 -3 0 5 -9 9 -20 9 -11 0 -20 -3 -20 -6 0
-3 -9 -6 -20 -6 -11 0 -20 4 -20 9 0 5 -7 4 -15 -3 -8 -7 -15 -9 -15 -4 0 5
-11 9 -25 9 -14 0 -25 -2 -25 -5 0 -3 -9 -6 -20 -6 -11 0 -20 4 -20 9 0 5 -6
4 -13 -2 -8 -6 -17 -8 -21 -4 -8 9 -46 12 -46 3 0 -3 -9 -6 -20 -6 -11 0 -20
3 -20 7 0 9 -21 6 -37 -4 -8 -5 -13 -3 -13 4 0 8 -4 8 -15 -1 -10 -8 -15 -9
-15 -1 0 7 -8 8 -25 1 -14 -5 -25 -6 -25 -1 0 4 -7 8 -15 8 -8 0 -12 -4 -9 -9z"/>
<path d="M92 6103 l3 -647 12425 0 12425 0 2 647 3 647 -12430 0 -12430 0 2
-647z"/>
</g>
</svg>
