<svg id="svg" version="1.1" xmlns="http://www.w3.org/2000/svg" xmlns:xlink="http://www.w3.org/1999/xlink" viewBox="0, 0, 400,228.8969445882962"><g id="svgg"><path id="path0" d="M1.450 10.979 L 1.450 21.336 200.311 21.336 L 399.171 21.336 399.171 10.979 L 399.171 0.621 200.311 0.621 L 1.450 0.621 1.450 10.979 M396.064 10.979 L 396.064 18.229 200.311 18.229 L 4.557 18.229 4.557 10.979 L 4.557 3.729 200.311 3.729 L 396.064 3.729 396.064 10.979 M278.198 37.286 L 278.198 46.608 251.579 46.608 L 224.961 46.608 224.961 112.895 L 224.961 179.182 241.429 179.182 L 257.897 179.182 257.897 130.295 L 257.897 81.409 268.048 81.409 L 278.198 81.409 278.198 140.549 L 278.198 199.689 294.252 199.689 L 310.306 199.689 310.306 140.549 L 310.306 81.409 320.461 81.409 L 330.617 81.409 330.554 111.393 C 330.493 141.082,330.488 141.390,330.064 142.620 C 328.592 146.892,326.766 148.060,320.074 149.012 C 318.235 149.274,316.681 149.537,316.622 149.596 C 316.544 149.674,323.252 179.018,324.326 183.299 C 324.470 183.874,325.067 183.852,329.881 183.095 C 349.967 179.934,361.019 167.210,363.235 144.692 C 363.489 142.111,363.541 136.484,363.542 111.497 L 363.542 81.409 366.546 81.409 L 369.549 81.409 369.549 64.008 L 369.549 46.608 339.927 46.608 L 310.306 46.608 310.306 37.286 L 310.306 27.965 294.252 27.965 L 278.198 27.965 278.198 37.286 M305.334 42.258 L 305.334 51.579 334.956 51.579 L 364.578 51.579 364.578 64.008 L 364.578 76.437 361.582 76.437 L 358.586 76.437 358.510 110.254 C 358.426 147.705,358.476 146.396,356.887 152.771 C 353.475 166.467,345.644 174.426,332.470 177.586 C 329.173 178.376,328.385 178.454,328.252 178.001 C 328.191 177.796,327.712 175.764,327.186 173.485 C 325.967 168.199,322.746 154.538,322.610 154.077 C 322.529 153.803,322.681 153.696,323.294 153.593 C 329.613 152.530,333.338 149.329,334.915 143.605 L 335.472 141.585 335.530 109.011 L 335.589 76.437 320.461 76.437 L 305.334 76.437 305.334 135.577 L 305.334 194.718 294.252 194.718 L 283.169 194.718 283.169 135.577 L 283.169 76.437 268.048 76.437 L 252.926 76.437 252.926 125.324 L 252.926 174.210 241.429 174.210 L 229.933 174.210 229.933 112.895 L 229.933 51.579 256.551 51.579 L 283.169 51.579 283.169 42.258 L 283.169 32.936 294.252 32.936 L 305.334 32.936 305.334 42.258 M29.622 58.933 L 29.622 76.230 36.561 76.230 L 43.501 76.230 43.501 83.554 C 43.501 103.396,47.153 113.136,57.025 119.620 C 65.055 124.894,66.809 125.115,100.621 125.116 L 125.738 125.117 125.734 133.868 C 125.728 149.849,124.897 152.454,119.163 154.481 L 117.556 155.049 76.696 155.105 L 35.836 155.161 35.836 172.454 L 35.836 189.746 75.696 189.746 C 100.471 189.746,116.757 189.667,118.730 189.536 C 140.191 188.113,152.665 177.926,156.900 158.364 C 158.225 152.242,158.503 148.640,158.617 136.147 L 158.718 125.117 162.218 125.117 L 165.717 125.117 165.717 107.716 L 165.717 90.316 121.077 90.316 L 76.437 90.316 76.437 83.273 L 76.437 76.230 117.970 76.230 L 159.503 76.230 159.503 58.933 L 159.503 41.636 94.562 41.636 L 29.622 41.636 29.622 58.933 M154.531 58.933 L 154.531 71.258 112.988 71.258 L 71.444 71.258 71.507 81.570 L 71.569 91.881 72.098 92.909 C 72.474 93.639,72.920 94.118,73.636 94.561 L 74.644 95.184 117.695 95.238 L 160.746 95.292 160.746 107.719 L 160.746 120.145 157.245 120.145 L 153.745 120.145 153.640 133.351 C 153.533 146.744,153.418 149.163,152.654 154.002 C 149.943 171.174,141.126 180.876,125.634 183.732 C 120.457 184.686,122.524 184.641,80.425 184.717 L 40.808 184.788 40.808 172.456 L 40.808 160.124 78.250 160.123 C 110.485 160.122,115.979 160.079,117.763 159.811 C 123.993 158.875,127.479 156.175,129.276 150.891 C 130.510 147.263,130.567 146.518,130.656 132.729 L 130.738 120.145 103.329 120.144 C 75.819 120.144,72.996 120.081,69.498 119.389 C 59.491 117.412,52.443 110.753,49.927 100.897 C 48.681 96.018,48.472 93.160,48.472 80.964 L 48.472 71.258 41.533 71.258 L 34.593 71.258 34.593 58.933 L 34.593 46.608 94.562 46.608 L 154.531 46.608 154.531 58.933 M1.450 216.675 L 1.450 227.033 200.311 227.033 L 399.171 227.033 399.171 216.675 L 399.171 206.318 200.311 206.318 L 1.450 206.318 1.450 216.675 M396.064 216.675 L 396.064 223.925 200.311 223.925 L 4.557 223.925 4.557 216.675 L 4.557 209.425 200.311 209.425 L 396.064 209.425 396.064 216.675 " stroke="none" fill="#040404" fill-rule="evenodd"></path><path id="path1" d="M4.557 10.979 L 4.557 18.229 200.311 18.229 L 396.064 18.229 396.064 10.979 L 396.064 3.729 200.311 3.729 L 4.557 3.729 4.557 10.979 M283.169 42.258 L 283.169 51.579 256.551 51.579 L 229.933 51.579 229.933 112.895 L 229.933 174.210 241.429 174.210 L 252.926 174.210 252.926 125.324 L 252.926 76.437 268.048 76.437 L 283.169 76.437 283.169 135.577 L 283.169 194.718 294.252 194.718 L 305.334 194.718 305.334 135.577 L 305.334 76.437 320.461 76.437 L 335.589 76.437 335.530 109.011 L 335.472 141.585 334.915 143.605 C 333.338 149.329,329.613 152.530,323.294 153.593 C 322.681 153.696,322.529 153.803,322.610 154.077 C 322.746 154.538,325.967 168.199,327.186 173.485 C 327.712 175.764,328.191 177.796,328.252 178.001 C 328.385 178.454,329.173 178.376,332.470 177.586 C 345.644 174.426,353.475 166.467,356.887 152.771 C 358.476 146.396,358.426 147.705,358.510 110.254 L 358.586 76.437 361.582 76.437 L 364.578 76.437 364.578 64.008 L 364.578 51.579 334.956 51.579 L 305.334 51.579 305.334 42.258 L 305.334 32.936 294.252 32.936 L 283.169 32.936 283.169 42.258 M34.593 58.933 L 34.593 71.258 41.533 71.258 L 48.472 71.258 48.472 80.964 C 48.472 93.160,48.681 96.018,49.927 100.897 C 52.443 110.753,59.491 117.412,69.498 119.389 C 72.996 120.081,75.819 120.144,103.329 120.144 L 130.738 120.145 130.656 132.729 C 130.567 146.518,130.510 147.263,129.276 150.891 C 127.479 156.175,123.993 158.875,117.763 159.811 C 115.979 160.079,110.485 160.122,78.250 160.123 L 40.808 160.124 40.808 172.456 L 40.808 184.788 80.425 184.717 C 122.524 184.641,120.457 184.686,125.634 183.732 C 141.126 180.876,149.943 171.174,152.654 154.002 C 153.418 149.163,153.533 146.744,153.640 133.351 L 153.745 120.145 157.245 120.145 L 160.746 120.145 160.746 107.719 L 160.746 95.292 117.695 95.238 L 74.644 95.184 73.636 94.561 C 72.920 94.118,72.474 93.639,72.098 92.909 L 71.569 91.881 71.507 81.570 L 71.444 71.258 112.988 71.258 L 154.531 71.258 154.531 58.933 L 154.531 46.608 94.562 46.608 L 34.593 46.608 34.593 58.933 M4.557 216.675 L 4.557 223.925 200.311 223.925 L 396.064 223.925 396.064 216.675 L 396.064 209.425 200.311 209.425 L 4.557 209.425 4.557 216.675 " stroke="none" fill="#fbfbfb" fill-rule="evenodd"></path></g></svg>